<svg id="Camada_1" data-name="Camada 1" xmlns="http://www.w3.org/2000/svg" viewBox="0 0 2306.09 1306.91"><defs><style>.cls-1,.cls-2{fill:#010001;stroke:#010001;stroke-miterlimit:10;}.cls-2{stroke-width:4px;}</style></defs><path class="cls-1" d="M2119.65,894.94c-.35,1.85-.65,7.55,4.94,27.42-29.91-5.7-56.42-16.55-82.65-28.19-8.1-3.59-16-7.68-24-11.34-31.18-14.14-60.78-29.93-68.57-66.43-3.47,0-5.13-.45-5.5.06-10.74,14.54-20.8,12.35-34.72,2.34-39.39-28.37-78.3-57.26-116.27-87.51-10.09-8-9.37-13.91-2.63-22.22.44-.84.89-1.66,1.35-2.48l-1.58.25.72,2.48c-11.33-2.62-25.24,7.28-36.49-7,1,17.87,1.22,35.8,3.08,53.58,1.32,12.67-3.71,17.48-15.6,17.11a35.09,35.09,0,0,0-3.54.25c-38.13,2.51-38.12,2.5-48.37-34.21-6.49-23.23-12.73-46.63-40-59.26,13.32,25.83-7.65,26.79-21.8,32.23-48,18.47-97,34.13-146,49.81-16.68,5.34-26.65,3.55-32.2-13.68-1.23-3.82-3.92-7.17-5.91-10.68-5.47,1.71-8,6.13-10.11,10.1-14.84,28.49-39.55,38.86-70.11,43.2-46.26,6.56-92.24,14.13-139.73,11.55.92-10.51,9.51-15.84,12.89-30.26-26.66,23.82-52.57,36.16-84.32,13.68,88.49-82.45,185.4-151.05,303.77-192.77-25.56-5-47.77-9.26-70-13.64-7-1.37-14.3-2.36-16.32-11.08-3.38-14.54-12.88-16.33-25-11.59-20,7.83-38.91,3.59-58.5-2.92-41.61-13.84-82.86-28.46-120.92-50.47-1.5-.87-5-2-9.74-3.14-13.72-3.18-38.6-33.24-34.7-39.85-29.36,4.52-37.3-20.24-51.09-36-7.06-8.06,4.54-8.69,8.64-10.5a795.58,795.58,0,0,1,148.23-48.31c87.08-19.27,174.48-26.61,261.92-2,79.63,22.42,139.88,70.13,182,141.06a99,99,0,0,1,8,15.82c2,5.44,2.85,11.32,4.58,18.61l61.26-43.43c-4.82-6.22-9.22-3.78-13.31-2-15.1,6.39-16.45-1-13.61-13.2,4.89-21.1,14.63-40.11,26.61-57.72,80.55-118.4,189.55-186.75,335.69-186.18,49.16.19,93.73,22.5,143.73,35.35-26.88,15.46-52.49,24.71-76.68,36.79-25.46,12.71-52.42,5.15-79.9,10.6,14.39,14.5,2.93,15-8.12,17.46-43.47,9.62-85.07,24.9-125.72,42.92-3.78,1.67-7.73,5.29-11.24,4.89-26.59-3-42.48,13.69-61,28.74s-41.25,25.32-62.24,37.48c-5.13,3-9.24,9.94-17,4.07-5.85-4.4-6.77,2.42-8.41,5.32-4,7.15-7.34,14.73-15.56,19.2,8.18,5,13.32.45,18.61-2.67,207.06-121.71,432.21-162.18,669.3-149.24q48.83,2.66,97.15,10.05c5.07.78,10.07,1.95,16.8,3.28-12.67,21.92-29.14,38.59-46.35,54.6-5.68,5.28-12.49,1.78-18.76,1.59-12.41-.37-24.81-1.18-40.63-2l25.32,28.1c-29.15,21.9-62,35.11-95.14,47.54-77.05,28.92-157.09,48.46-235.23,74-19.13,6.26-40.06.75-60.11.1-11.08-.36-18.54,1.79-20.93,13.14-2.83,13.48-12.06,18.78-24.45,22.08-40,10.63-79.85,21.83-119.69,33.08-13.75,3.88-25.84,4.49-31.57-12.29-7.4,4-10,10.55-13.83,17.14,6.92,5.42,15.38,5.18,22.91,7.35,54.89,15.79,100.69,46.68,141.33,85.71,61,58.55,106.62,128,144.28,203.25,6,12.09,1.27,13.58-9,14.41-18.82,1.53-35.1-.92-44.65-20.35-2.65-5.39-5.85-11.64-12.21-14.52,0-.78-.12-1.87-.35-1.89S2119.8,894.17,2119.65,894.94ZM1754.43,524c17.8-9.08,35.37-18.65,53.44-27.16,66.89-31.53,137.29-49.19,214-51.67-7.6-2.6-12.28-4.83-17.2-5.72a80.55,80.55,0,0,0-15.85-.79c-86.14,1.57-162.06,32.57-232,80.68-1.68,1.15-4.43,2.12-2.17,5.07-2-2.27-3.82-.6-5.46.57-.29.21.23,2.3.42,2.3C1752,527.36,1753.83,526.52,1754.43,524ZM1379.8,440.64c74.71-1.6,144.79,17,211,51.5C1527.22,448.85,1458.4,426.32,1379.8,440.64ZM2010,515.33c-34-24.73-158.88-14.53-193.75,9.73C1882.67,509.21,1946,503.84,2010,515.33ZM1472.05,382c62.19,25.49,114.09,65.66,160.39,113.8C1591.73,439.66,1541.22,397.53,1472.05,382ZM1612.3,594.09c-43.25-10.43-85.49-8.6-126.11,11.22C1527.64,594.68,1569.55,589.68,1612.3,594.09Zm-124.78,60.54c24.27-14.26,49.66-26.27,75.52-37.35C1534.18,622.36,1508.6,634,1487.52,654.63Zm279.07-30c24.81,4.29,48.33,14,72.2,22.59C1817.17,632.28,1793.49,623.93,1766.59,624.67Z" transform="translate(-264.28 -197.69)"/><path class="cls-1" d="M1687.2,510.49c-24.49-58.67-63.73-102.34-115.33-135.36-11.16-7.14-22.33-13.57-26.34-27.15-1.53-5.17-5-7.28-9.17-4.9-17.73,10.18-33-2.37-49.38-4.48-26-3.33-45.59-15.3-61.68-36.37-8.37-11-9-18.6,1.54-30.19-39.28-.14-46.29-32.31-64.7-56.22,59.3-11.45,116-26.09,174.94-11.55,60.33,14.88,103.2,51.32,129.72,106.79,27.23,56.94,36.83,117,27.7,179.71a84.09,84.09,0,0,1-3.58,13.69C1690.26,506.47,1688.67,508.17,1687.2,510.49Z" transform="translate(-264.28 -197.69)"/><path class="cls-1" d="M1722.55,1124.54c-34-14.62-59.71-36.2-81.17-63.47-4.15-5.27-3.2-9.26.17-14.12,3-4.39,5.12-9,12.15-7.53,25.13,5.38,50.4,4.83,75.65.7,7.24-1.19,7.87,2.67,6.88,8.14C1731.77,1073.14,1727.31,1098,1722.55,1124.54Z" transform="translate(-264.28 -197.69)"/><path class="cls-1" d="M1684.43,958.11c16.62,13.39,32.53,23.57,49.91,30.92,17.77,7.51,4.71,20.15,5.94,30.31,1.16,9.47-5.2,11.94-13.18,12.41-24.14,1.39-48.2,1.69-73.51-3.9C1665,1005.13,1675.43,982.83,1684.43,958.11Z" transform="translate(-264.28 -197.69)"/><path class="cls-1" d="M1754.39,862.54c-29.05-16-53.14-33.24-53.84-69.42-.15-8,1.45-10.11,9.33-9.59,9.37.63,19.49,1.83,28.13-.89,19.75-6.24,20.81,3.43,19.78,18.72C1756.45,821.15,1758.1,841.14,1754.39,862.54Z" transform="translate(-264.28 -197.69)"/><path class="cls-1" d="M1705.18,843.36c14.23,8.17,27.24,16.2,40.79,23.19,6.66,3.44,10.53,7.35,8.56,14.93-2.39,9.17,4.84,22.68-6.2,27.13-15,6-31.5,1.86-47.15-1.14-4.53-.87-2.89-5.62-2.5-9C1700.79,880.42,1702.94,862.34,1705.18,843.36Z" transform="translate(-264.28 -197.69)"/><path class="cls-1" d="M1713.91,921c6.93,0,11.67.26,16.37-.05,22.15-1.43,22.18-1.48,19.77,21.39-.74,7.05-1.86,14.06-2.52,21.11-2.19,23.6-2.84,24-22.74,11.93-9.15-5.54-17-12.65-24.52-20.21-9.48-9.48-12.16-20-6.07-31.85C1699.81,912.39,1709,923.24,1713.91,921Z" transform="translate(-264.28 -197.69)"/><path class="cls-1" d="M1614.19,841.83c-50.63,12.88-80.8,43.69-86.73,98.3-47-34.2-90.61-19.48-133.44,8.79,24.64-51,61.33-61.52,122.6-38.56C1544.81,844.6,1569.72,826.77,1614.19,841.83Z" transform="translate(-264.28 -197.69)"/><path class="cls-1" d="M1159.88,1017.36c-23.15-52.67-67.14-53.56-118.05-50.66,63.28-28.82,87.36-23.5,122.66,22.66,51-37.29,77-40.45,101.79-9.15C1221.61,967.11,1187.58,980.26,1159.88,1017.36Z" transform="translate(-264.28 -197.69)"/><path class="cls-1" d="M1641.65,510.24l-10.46-12.62C1640.18,500.4,1641.58,504.8,1641.65,510.24Z" transform="translate(-264.28 -197.69)"/><path class="cls-1" d="M1754.43,524c-.6,2.53-2.46,3.37-4.79,3.28-.19,0-.71-2.09-.42-2.3,1.64-1.17,3.41-2.84,5.46-.57Z" transform="translate(-264.28 -197.69)"/><path class="cls-1" d="M2119.65,894.94c-.37-1.33-.74-2.66-1.12-4,2.45-.68,2.16,1.24,2.46,2.6Z" transform="translate(-264.28 -197.69)"/><path class="cls-1" d="M1646.9,515l-1.07,1c-.3-.39-.86-.79-.84-1.16s.62-.71,1-1.06Z" transform="translate(-264.28 -197.69)"/><path class="cls-1" d="M1469.56,669.68l.16.67s-.47-.37-.49-.33Z" transform="translate(-264.28 -197.69)"/><path class="cls-1" d="M1790.69,709.32l-.72-2.48,1.58-.25c-.46.82-.91,1.64-1.35,2.48Z" transform="translate(-264.28 -197.69)"/><path class="cls-2" d="M950.28,1006.56q0,53-50.88,95.39-51.58,41.7-110.23,41.69-21.2,0-37.45-7.77-13.44-8.49-14.84-21.2,0-31.8,20.49-31.8,12,0,12.72,9.19c0,2.36-1.18,4.71-3.53,7.07a6.07,6.07,0,0,0-1.77,3.17c-.24,1.19-.6,2.72-1.06,4.6q0,9.18,10.6,16.25,11.29,7.06,28.26,7.06,39.57,0,76.32-34.62,37.44-36,37.45-72.78,0-33.21-33.92-56.53-31.1-22.6-82-22.61-80.55,0-176.65,50.17-103.17,53-103.16,113.06,0,43.11,54.41,65L765.85,1244q70.65,26.14,70.66,78.43,0,80.55-82,130.72-41.71,24-95.4,36.39T536.91,1502.6q-111.66,0-192.2-38.16-78.43-39.57-78.43-94.68,0-44.52,59.35-63.6,26.14-7,28.27.71c-1.41,1-3.3,2.36-5.65,4.24a85.87,85.87,0,0,0-8.13,5.65q-4.61,3.54-10.25,7.77-23.31,14.85-24,40.28,0,57.24,67.13,90.44,64.29,31.8,180.18,33.22,55.13,0,100.69-9.9t83-31.09q73.49-40.27,73.49-101,0-47.34-65-72.78L556.7,1198.05q-55.83-21.19-56.53-75.61,0-74.19,99.63-135.67,100.32-62.16,218.34-62.18,62.88,0,97.51,22.61Q948.86,969.11,950.28,1006.56Z" transform="translate(-264.28 -197.69)"/><path class="cls-2" d="M1121.27,1358.45a8.71,8.71,0,0,1-3.53,7.07q-38.16,33.21-61.48,52.28T1022.35,1444q-62.19,45.93-94.69,45.93-19.77,0-37.45-12-16.25-11.3-17.67-28.27,0-26.13,27.56-61.47,24.75-32.49,43.81-36.75,9.18,0,9.19,6.36,0,5.67-22.61,31.09-19.8,25.44-21.2,48.05,0,28.27,26.14,29,29.69,0,178.07-110.23a5.8,5.8,0,0,1,4.24-1.41C1119.15,1354.21,1120.32,1355.62,1121.27,1358.45Zm-85.5-142q0,15.55-4.24,24.73-3.54,6.36-29,36-14.14,12-24.38,17.66t-18.72,7.07c-2.37,0-4.24-3.53-5.66-10.6q0-3.52,10.6-13.42,5.65-4.94,10.25-8.84t6-6.71c2.35-3.76,4.34-7.3,6-10.6s3.41-7.3,5.3-12q1.41-5.65,3.18-11.66t3.18-12.37q4.24-10.59,19.08-12.71Q1035.76,1203,1035.77,1216.42Z" transform="translate(-264.28 -197.69)"/><path class="cls-2" d="M1474.57,1203.7q0,14.15-28.26,16.25h-183l-103.16,109.53q-71.39,82-71.37,116.59,0,22.62,30.39,22.61,38.85,0,106-45.22,22.6-16.24,44.87-32.86t45.57-35c.47-.93,1.88-1.41,4.24-1.41,1.42,0,2.36,1.66,2.83,5a12.18,12.18,0,0,1-2.83,7.77q-36.75,29.67-61.82,49.81t-40.63,30.74q-70,48-117.3,48.76-17,0-27.56-12.72-11.29-13.43-11.31-31.8,0-42.39,71.37-123,26.13-26.85,51.58-53.7t51.59-55.12l-255.09-5.65c-6.11,0-8.48-4.24-7.06-12.72q.7-4.93,14.83-6.36h272.05l63.59-62.18a65.33,65.33,0,0,1,6.72-2.83,47.67,47.67,0,0,1,11-2.11q3.52,0,7.06,4.94,2.13,4.24,0,7.77l-62.18,54.41Z" transform="translate(-264.28 -197.69)"/><path class="cls-2" d="M1496.47,1358.45a8.71,8.71,0,0,1-3.53,7.07q-38.16,33.21-61.48,52.28T1397.55,1444q-62.19,45.93-94.69,45.93-19.77,0-37.45-12-16.25-11.3-17.66-28.27,0-26.13,27.55-61.47,24.75-32.49,43.81-36.75,9.18,0,9.19,6.36,0,5.67-22.61,31.09-19.8,25.44-21.2,48.05,0,28.27,26.14,29,29.68,0,178.07-110.23a5.8,5.8,0,0,1,4.24-1.41C1494.35,1354.21,1495.52,1355.62,1496.47,1358.45Zm-115.17-53q0,19.8-28.27,19.79-27.55,0-27.56-19.79,0-20.48,27.56-20.49Q1381.29,1285,1381.3,1305.45Z" transform="translate(-264.28 -197.69)"/><path class="cls-2" d="M1709.16,1358.45a19.5,19.5,0,0,1-.36,3.89,12.73,12.73,0,0,1-2.47,4.59q-25.44,31.1-77.73,66.42-28.26,20.51-49.46,30.38t-35.33,10.6a47.5,47.5,0,0,1-33.92-13.42q-6.36,8.47-32.5,23.32-30.37,16.24-56.53,16.25-36.73,0-36.74-29,0-19.08,14.13-39.93t41-44.87q26.16-22.61,49.11-33.21t41.34-10.6q36,0,36,33.92,0,37.47-42.4,73.49a30.7,30.7,0,0,0,22.61,9.19q24,0,78.43-38.87,23.33-16.25,42.75-32.5a429.18,429.18,0,0,0,35-32.51q.71-2.11,4.24-.7C1708.21,1354.92,1709.16,1356.1,1709.16,1358.45Zm-207.75,90.45q-14.13-14.13-14.13-36.75,0-30.37,12.72-43.1-84.07,38.87-84.08,81.26,0,26.14,20.49,26.14Q1467.51,1476.45,1501.41,1448.9Zm54.41-77.73q0-11.3-12.71-12.72-16.27,0-28.27,14.13-10.59,12.72-12,30.39,0,26.15,9.18,34.62Q1554.42,1404.38,1555.82,1371.17Z" transform="translate(-264.28 -197.69)"/><path class="cls-2" d="M2051.14,1358.45a8.71,8.71,0,0,1-3.53,7.07q-38.16,33.21-61.48,52.28T1952.22,1444q-62.19,45.93-94.69,45.93-19.77,0-37.45-12-16.24-11.3-17.67-28.27,0-26.13,27.56-61.47,24.75-32.49,43.81-36.75,9.18,0,9.19,6.36,0,5.67-22.61,31.09-19.8,25.44-21.2,48.05,0,28.27,26.14,29,29.68,0,178.07-110.23a5.8,5.8,0,0,1,4.24-1.41C2049,1354.21,2050.19,1355.62,2051.14,1358.45Zm-115.18-53q0,19.8-28.26,19.79-27.56,0-27.56-19.79,0-20.48,27.56-20.49Q1935.95,1285,1936,1305.45Z" transform="translate(-264.28 -197.69)"/><path class="cls-2" d="M2502.66,1051.08q0,55.82-181.6,221.16-31.8,26.87-78.79,64.31t-112,86.2q8.47,54.42,55.11,55.82,30.38,0,87.62-32.5,37.45-21.19,87.62-60.06,40.27-31.8,42.4-31.8c2.82,0,4.24,1.89,4.24,5.65q0,5-57.95,52.29-26.85,21.19-46.63,35.33t-33.21,22.61q-50.19,29-91.86,30.39-50.17,0-66.42-64.3l-62.89,34.62a176.17,176.17,0,0,1-33.92,11.66,245.49,245.49,0,0,1-33.21,5.3,42.2,42.2,0,0,1-27.56-9.89q-11.3-9.18-11.3-24.74,0-25.43,39.57-58.64,56.53-45.93,108.82-48,10.59,0,20.49,7.77,7.77,4.24,7.77,14.13,0,17.67-12,19.79c-1.41,0-3.3-1.88-5.65-5.66q-.72-3.53-1.42-6.36a51.21,51.21,0,0,0-2.12-6.35q-2.11-6.36-25.44-6.36-29.67,0-76.31,46.63-9.88,9.9-14.48,18.73a45.78,45.78,0,0,0-5.3,17.31q0,17,22.61,17.66,7.79,0,21.2-3.88a233.19,233.19,0,0,0,31.79-12.37q16.24-7.05,30.74-14.48a256.54,256.54,0,0,0,27.91-16.61,308.91,308.91,0,0,1,14.13-43.1,408,408,0,0,1,19.79-41c.94-1.42,4.12-6.47,9.54-15.2s13.53-21.07,24.38-37.09a1027,1027,0,0,1,64.65-88.68,874.69,874.69,0,0,1,76-81.62q95.4-91.85,152.63-93.27Q2501.95,1016.45,2502.66,1051.08Zm-29,0q0-17.65-19.08-19.08-31.8,0-103.87,65a792.86,792.86,0,0,0-68.9,68.9,922.21,922.21,0,0,0-63.24,80.2q-67.83,89.75-86.2,156.87,51.57-38.16,97.86-74.55t88.68-73.14q60-51.57,105.29-110.23Q2472.26,1082.89,2473.69,1051.08Z" transform="translate(-264.28 -197.69)"/><path class="cls-2" d="M2568.37,1358.45a12.16,12.16,0,0,1-2.83,7.77q-36.75,31.11-62.18,50.88t-40.28,29.68q-70.66,47.33-127.89,48.75-48.77,0-49.47-50.17,0-31.08,36-72.78,38.86-40.27,65-40.27c6.11,0,11.54,2.36,16.25,7.06q7.77,6.36,7.77,14.13a29.82,29.82,0,0,1-2.47,12q-2.49,5.65-10.25,13.42A133,133,0,0,1,2385,1390.6q-6,4.61-13.78,10.25-11.29,8.48-24.38,17.31a265.58,265.58,0,0,1-30,17.31q-.69,17,14.14,28.26a47.12,47.12,0,0,0,26.14,7.78q36.73,0,109.53-47.35,7.05-4.94,30.38-21.9t63.59-47.34a15.71,15.71,0,0,1,4.95-.71Q2567.65,1354.21,2568.37,1358.45Zm-188.67,2.83q0-5.65-9.18-5.66c-3.29,0-7.78,1.77-13.43,5.3s-11.77,9.08-18.37,16.61a101.16,101.16,0,0,0-12.72,17.66q-5.64,9.91-7.07,17.67a22.67,22.67,0,0,0,5.66-1.41,38.58,38.58,0,0,0,7.77-3.54,157.79,157.79,0,0,0,32.86-23.32Q2379.71,1371.18,2379.7,1361.28Z" transform="translate(-264.28 -197.69)"/></svg>