<svg id="Layer_1" data-name="Layer 1" xmlns="http://www.w3.org/2000/svg" viewBox="0 0 327.49 141.29"><defs><style>.cls-1{fill:#231f20;}</style></defs><path class="cls-1" d="M61.76,43.43l4.9,18.85c1.07,4.13,2.07,8,2.76,11.79h.23c.84-3.75,2.06-7.73,3.29-11.71l6-18.93h5.67L90.4,62c1.38,4.44,2.46,8.35,3.3,12.1h.23a111.83,111.83,0,0,1,2.83-12l5.29-18.62h6.66L96.76,80.51H90.63L85,62.81a121.47,121.47,0,0,1-3.3-12.17h-.15a110.21,110.21,0,0,1-3.37,12.25l-6,17.62H66.05L54.86,43.43Z"/><path class="cls-1" d="M148.23,61.67c0,13.71-9.49,19.68-18.46,19.68-10,0-17.77-7.35-17.77-19.07,0-12.41,8.12-19.69,18.39-19.69C141,42.59,148.23,50.33,148.23,61.67Zm-29.41.38c0,8.12,4.67,14.25,11.26,14.25,6.43,0,11.26-6.06,11.26-14.4,0-6.29-3.14-14.25-11.11-14.25S118.82,55,118.82,62.05Z"/><path class="cls-1" d="M156.74,26.12h6.74V80.51h-6.74Z"/><path class="cls-1" d="M177.42,43.43l7.27,20.84a94.78,94.78,0,0,1,3,9.5h.23c.84-3.07,1.92-6.13,3.14-9.5l7.2-20.84h7.05L190.74,80.51h-6.43L170.22,43.43Z"/><path class="cls-1" d="M214.64,63.2c.16,9.11,6,12.87,12.72,12.87a24.41,24.41,0,0,0,10.26-1.92L238.77,79a30.06,30.06,0,0,1-12.33,2.29c-11.41,0-18.23-7.5-18.23-18.69s6.59-20,17.39-20c12.1,0,15.32,10.65,15.32,17.47a26.78,26.78,0,0,1-.23,3.14Zm19.76-4.83c.08-4.29-1.76-10.95-9.34-10.95-6.82,0-9.8,6.28-10.34,10.95Z"/><path class="cls-1" d="M248.34,73.62a17.73,17.73,0,0,0,8.89,2.68c4.9,0,7.2-2.46,7.2-5.52,0-3.22-1.92-5-6.89-6.82-6.67-2.37-9.81-6.05-9.81-10.49,0-6,4.83-10.88,12.79-10.88a18.46,18.46,0,0,1,9.12,2.3L268,49.79a14.39,14.39,0,0,0-7.58-2.14c-4,0-6.2,2.3-6.2,5.05,0,3.07,2.22,4.45,7,6.28,6.44,2.46,9.73,5.67,9.73,11.19,0,6.51-5.05,11.1-13.86,11.1a21.16,21.16,0,0,1-10.42-2.52Z"/><path class="cls-1" d="M178,105.59c-.18-3.32-.39-7.32-.35-10.29h-.11c-.81,2.8-1.8,5.77-3,9l-4.2,11.56H168l-3.85-11.34c-1.13-3.36-2.09-6.44-2.76-9.27h-.07c-.07,3-.25,7-.46,10.54l-.63,10.22h-2.94l1.66-23.83h3.93l4.06,11.52c1,2.94,1.81,5.55,2.41,8h.1c.6-2.41,1.45-5,2.51-8l4.25-11.52h3.92l1.49,23.83h-3Z"/><path class="cls-1" d="M198.65,104.88h-9.26v8.59h10.32v2.59h-13.4V92.23h12.87v2.58h-9.79v7.53h9.26Z"/><path class="cls-1" d="M203.7,92.55a43.11,43.11,0,0,1,6.54-.5c4.42,0,7.57,1,9.66,3s3.36,4.7,3.36,8.56a12.62,12.62,0,0,1-3.43,9.26c-2.23,2.23-5.91,3.43-10.54,3.43a51.55,51.55,0,0,1-5.59-.28Zm3.08,21.07a19.71,19.71,0,0,0,3.11.17c6.58,0,10.15-3.67,10.15-10.11,0-5.62-3.15-9.19-9.65-9.19a17.25,17.25,0,0,0-3.61.32Z"/><path class="cls-1" d="M230.32,92.23v23.83h-3.07V92.23Z"/><path class="cls-1" d="M239.55,108.56l-2.47,7.5h-3.19L242,92.23h3.71l8.13,23.83h-3.28l-2.55-7.5Zm7.81-2.4L245,99.3c-.53-1.56-.88-3-1.24-4.35h-.07c-.35,1.41-.74,2.86-1.2,4.31l-2.33,6.9Z"/><rect class="cls-1" x="74.98" y="113.28" width="84.63" height="2.77"/></svg>